<svg width="144" height="40" viewBox="0 0 144 40" fill="none" xmlns="http://www.w3.org/2000/svg">
<g clip-path="url(#clip0_26_1142)">
<rect width="40" height="40" rx="20" fill="#5816E0"/>
<mask id="path-2-inside-1_26_1142" fill="white">
<path fill-rule="evenodd" clip-rule="evenodd" d="M14.0704 10.0789C13.8393 10.0385 13.6092 10.014 13.381 10.0045C10.7946 9.89682 8.46576 11.7199 8.00867 14.3392C8.00625 14.3531 8.00388 14.367 8.00157 14.3808L5.88459 26.512C5.88305 26.5206 5.88153 26.5292 5.88003 26.5377C5.87853 26.5463 5.87706 26.5549 5.8756 26.5635L4.07886 36.8596C3.58146 39.7099 5.48886 42.4237 8.33916 42.9211C11.1895 43.4185 13.9033 41.5111 14.4007 38.6608L15.3013 33.4999L27.0306 35.5468C29.8809 36.0442 32.5948 34.1368 33.0922 31.2865C33.5896 28.4362 31.6822 25.7223 28.8319 25.2249L17.1026 23.1781L17.4301 21.3014L29.1593 23.3482C32.0096 23.8456 34.7234 21.9382 35.2208 19.0879C35.7182 16.2376 33.8108 13.5237 30.9605 13.0263L14.0855 10.0815C14.0804 10.0806 14.0754 10.0797 14.0704 10.0789ZM15.572 31.9487L16.8319 24.7293L28.5612 26.7762C30.5547 27.1241 31.8888 29.0222 31.5409 31.0158C31.193 33.0093 29.2949 34.3434 27.3014 33.9955L15.572 31.9487Z"/>
</mask>
<path fill-rule="evenodd" clip-rule="evenodd" d="M14.0704 10.0789C13.8393 10.0385 13.6092 10.014 13.381 10.0045C10.7946 9.89682 8.46576 11.7199 8.00867 14.3392C8.00625 14.3531 8.00388 14.367 8.00157 14.3808L5.88459 26.512C5.88305 26.5206 5.88153 26.5292 5.88003 26.5377C5.87853 26.5463 5.87706 26.5549 5.8756 26.5635L4.07886 36.8596C3.58146 39.7099 5.48886 42.4237 8.33916 42.9211C11.1895 43.4185 13.9033 41.5111 14.4007 38.6608L15.3013 33.4999L27.0306 35.5468C29.8809 36.0442 32.5948 34.1368 33.0922 31.2865C33.5896 28.4362 31.6822 25.7223 28.8319 25.2249L17.1026 23.1781L17.4301 21.3014L29.1593 23.3482C32.0096 23.8456 34.7234 21.9382 35.2208 19.0879C35.7182 16.2376 33.8108 13.5237 30.9605 13.0263L14.0855 10.0815C14.0804 10.0806 14.0754 10.0797 14.0704 10.0789ZM15.572 31.9487L16.8319 24.7293L28.5612 26.7762C30.5547 27.1241 31.8888 29.0222 31.5409 31.0158C31.193 33.0093 29.2949 34.3434 27.3014 33.9955L15.572 31.9487Z" fill="#5816E0"/>
<path d="M13.381 10.0045L13.3155 11.5779L13.3155 11.5779L13.381 10.0045ZM14.0704 10.0789L13.7997 11.6301L13.7997 11.6301L14.0704 10.0789ZM8.00867 14.3392L9.55993 14.6099L9.55994 14.6099L8.00867 14.3392ZM8.00157 14.3808L9.55288 14.6516L9.55493 14.6393L8.00157 14.3808ZM5.88459 26.512L7.43453 26.7903L7.43585 26.7827L5.88459 26.512ZM5.8756 26.5635L7.42688 26.8342L7.42817 26.8267L5.8756 26.5635ZM4.07886 36.8596L5.63012 37.1303H5.63012L4.07886 36.8596ZM8.33916 42.9211L8.60987 41.3699L8.33916 42.9211ZM14.4007 38.6608L12.8494 38.3901L14.4007 38.6608ZM15.3013 33.4999L15.572 31.9487L14.0208 31.678L13.7501 33.2292L15.3013 33.4999ZM27.0306 35.5468L27.3014 33.9955L27.0306 35.5468ZM28.8319 25.2249L29.1026 23.6737L28.8319 25.2249ZM17.1026 23.1781L15.5513 22.9074L15.2806 24.4586L16.8319 24.7293L17.1026 23.1781ZM17.4301 21.3014L17.7008 19.7501L16.1495 19.4794L15.8788 21.0307L17.4301 21.3014ZM29.1593 23.3482L29.43 21.7969L29.1593 23.3482ZM35.2208 19.0879L36.7721 19.3586V19.3586L35.2208 19.0879ZM30.9605 13.0263L30.6898 14.5776L30.9605 13.0263ZM14.0855 10.0815L13.8103 11.632L13.8147 11.6328L14.0855 10.0815ZM16.8319 24.7293L17.1026 23.1781L15.5513 22.9074L15.2806 24.4586L16.8319 24.7293ZM15.572 31.9487L14.0208 31.678L13.7501 33.2292L15.3013 33.4999L15.572 31.9487ZM28.5612 26.7762L28.2905 28.3275L28.5612 26.7762ZM31.5409 31.0158L33.0922 31.2865L31.5409 31.0158ZM27.3014 33.9955L27.5721 32.4443L27.3014 33.9955ZM13.3155 11.5779C13.4751 11.5845 13.6367 11.6017 13.7997 11.6301L14.3411 8.5276C14.042 8.47541 13.7433 8.44354 13.4465 8.43119L13.3155 11.5779ZM13.4465 8.43119C10.0811 8.29104 7.05211 10.6606 6.45741 14.0685L9.55994 14.6099C9.87942 12.7791 11.5081 11.5026 13.3155 11.5779L13.4465 8.43119ZM6.45741 14.0684C6.45428 14.0864 6.45121 14.1044 6.44821 14.1224L9.55493 14.6393C9.55655 14.6295 9.55822 14.6197 9.55993 14.6099L6.45741 14.0684ZM7.43585 26.7827L9.55283 14.6516L6.45031 14.1101L4.33333 26.2413L7.43585 26.7827ZM7.4313 26.8084C7.43235 26.8024 7.43342 26.7964 7.43452 26.7903L4.33466 26.2337C4.33268 26.2448 4.33071 26.2559 4.32877 26.2671L7.4313 26.8084ZM7.42817 26.8267C7.42919 26.8206 7.43024 26.8145 7.4313 26.8084L4.32877 26.2671C4.32683 26.2782 4.32492 26.2893 4.32304 26.3004L7.42817 26.8267ZM5.63012 37.1303L7.42687 26.8342L4.32434 26.2928L2.5276 36.5889L5.63012 37.1303ZM8.60987 41.3699C6.61631 41.022 5.28223 39.1239 5.63012 37.1303L2.5276 36.5889C1.88069 40.2959 4.36142 43.8255 8.06846 44.4724L8.60987 41.3699ZM12.8494 38.3901C12.5016 40.3837 10.6034 41.7178 8.60987 41.3699L8.06846 44.4724C11.7755 45.1193 15.3051 42.6386 15.952 38.9315L12.8494 38.3901ZM13.7501 33.2292L12.8494 38.3901L15.952 38.9315L16.8526 33.7706L13.7501 33.2292ZM27.3014 33.9955L15.572 31.9487L15.0306 35.0512L26.7599 37.098L27.3014 33.9955ZM31.5409 31.0158C31.193 33.0093 29.2949 34.3434 27.3014 33.9955L26.7599 37.098C30.467 37.745 33.9965 35.2642 34.6435 31.5572L31.5409 31.0158ZM28.5612 26.7762C30.5547 27.1241 31.8888 29.0222 31.5409 31.0158L34.6435 31.5572C35.2904 27.8501 32.8096 24.3206 29.1026 23.6737L28.5612 26.7762ZM16.8319 24.7293L28.5612 26.7762L29.1026 23.6737L17.3733 21.6268L16.8319 24.7293ZM15.8788 21.0307L15.5513 22.9074L18.6538 23.4488L18.9813 21.5721L15.8788 21.0307ZM17.1594 22.8526L28.8886 24.8995L29.43 21.7969L17.7008 19.7501L17.1594 22.8526ZM28.8886 24.8995C32.5956 25.5464 36.1252 23.0656 36.7721 19.3586L33.6696 18.8172C33.3217 20.8108 31.4236 22.1448 29.43 21.7969L28.8886 24.8995ZM36.7721 19.3586C37.419 15.6516 34.9383 12.122 31.2312 11.4751L30.6898 14.5776C32.6834 14.9255 34.0175 16.8236 33.6696 18.8172L36.7721 19.3586ZM31.2312 11.4751L14.3562 8.53025L13.8147 11.6328L30.6898 14.5776L31.2312 11.4751ZM13.7997 11.6301C13.8032 11.6307 13.8068 11.6314 13.8103 11.632L14.3606 8.53103C14.3541 8.52988 14.3476 8.52874 14.3411 8.5276L13.7997 11.6301ZM15.2806 24.4586L14.0208 31.678L17.1233 32.2194L18.3831 25L15.2806 24.4586ZM16.5612 26.2806L28.2905 28.3275L28.8319 25.2249L17.1026 23.1781L16.5612 26.2806ZM28.2905 28.3275C29.4273 28.5258 30.1881 29.6082 29.9897 30.7451L33.0922 31.2865C33.5896 28.4362 31.6822 25.7223 28.8319 25.2249L28.2905 28.3275ZM29.9897 30.7451C29.7913 31.8819 28.7089 32.6426 27.5721 32.4443L27.0306 35.5468C29.8809 36.0442 32.5948 34.1368 33.0922 31.2865L29.9897 30.7451ZM27.5721 32.4443L15.8427 30.3974L15.3013 33.4999L27.0306 35.5468L27.5721 32.4443Z" fill="#E9E6EF" mask="url(#path-2-inside-1_26_1142)"/>
</g>
<path d="M59 19.2109V31H56.75V19.2109H54.5V17.5H56.75V17.3828C56.75 16.4688 56.8516 15.707 57.0547 15.0977C57.2578 14.4883 57.5938 14 58.0625 13.6328C58.5312 13.2656 59.1484 13.0078 59.9141 12.8594C60.6875 12.7031 61.6367 12.625 62.7617 12.625H65.375V14.5H62.75C62.0391 14.5 61.4453 14.5156 60.9688 14.5469C60.4922 14.5781 60.1055 14.6836 59.8086 14.8633C59.5195 15.043 59.3125 15.3281 59.1875 15.7188C59.0625 16.1094 59 16.6641 59 17.3828V17.5H65.375V19.2109H59ZM78.905 17.5H81.155V31H78.905V17.5ZM81.155 15.25H78.905V13H81.155V15.25ZM104.06 31.2578C102.56 31.2578 101.287 31.1484 100.24 30.9297C99.1928 30.7109 98.3412 30.3359 97.685 29.8047C97.0287 29.2734 96.5522 28.5586 96.2553 27.6602C95.9584 26.7617 95.81 25.6328 95.81 24.2734C95.81 22.8672 95.9584 21.7031 96.2553 20.7812C96.5522 19.8594 97.0287 19.1289 97.685 18.5898C98.3412 18.0508 99.1928 17.6719 100.24 17.4531C101.287 17.2344 102.56 17.125 104.06 17.125C105.122 17.125 106.013 17.1797 106.732 17.2891C107.451 17.3984 108.037 17.5352 108.49 17.6992C108.951 17.8633 109.298 18.043 109.533 18.2383C109.775 18.4258 109.951 18.6016 110.06 18.7656V13H112.31V31H110.06V28.9961C110.06 28.9961 109.872 29.2188 109.497 29.6641C109.169 29.9844 108.806 30.2422 108.408 30.4375C108.009 30.6328 107.451 30.8203 106.732 31C106.013 31.1719 105.122 31.2578 104.06 31.2578ZM104.06 29.5C104.81 29.5 105.478 29.4844 106.064 29.4531C106.65 29.4141 107.165 29.3359 107.611 29.2188C108.056 29.1016 108.431 28.9297 108.736 28.7031C109.048 28.4688 109.302 28.1602 109.497 27.7773C109.693 27.3945 109.833 26.9219 109.919 26.3594C110.013 25.7891 110.06 25.1055 110.06 24.3086C110.06 23.4805 110.013 22.7773 109.919 22.1992C109.833 21.6133 109.693 21.125 109.497 20.7344C109.302 20.3359 109.048 20.0234 108.736 19.7969C108.431 19.5703 108.056 19.3984 107.611 19.2812C107.165 19.1562 106.65 19.0781 106.064 19.0469C105.478 19.0156 104.81 19 104.06 19C103.185 19 102.427 19.0273 101.787 19.082C101.154 19.1367 100.615 19.2344 100.169 19.375C99.7241 19.5156 99.3608 19.7109 99.0795 19.9609C98.8061 20.2109 98.5912 20.5312 98.435 20.9219C98.2866 21.3125 98.185 21.7852 98.1303 22.3398C98.0834 22.8867 98.06 23.5312 98.06 24.2734C98.06 25.0078 98.0834 25.6484 98.1303 26.1953C98.185 26.7344 98.2866 27.1992 98.435 27.5898C98.5912 27.9727 98.8061 28.2891 99.0795 28.5391C99.3608 28.7891 99.7241 28.9844 100.169 29.125C100.615 29.2656 101.154 29.3633 101.787 29.418C102.427 29.4727 103.185 29.5 104.06 29.5ZM128.852 17.5V25C128.852 25.8359 128.914 26.543 129.039 27.1211C129.164 27.6914 129.414 28.1523 129.789 28.5039C130.164 28.8555 130.695 29.1094 131.383 29.2656C132.07 29.4219 132.977 29.5 134.102 29.5C135.32 29.5 136.317 29.4102 137.09 29.2305C137.871 29.0508 138.485 28.7969 138.93 28.4688C139.375 28.1406 139.68 27.7461 139.844 27.2852C140.016 26.8242 140.102 26.3125 140.102 25.75V17.5H142.352V31H140.102V28.75C139.992 28.9922 139.809 29.2617 139.551 29.5586C139.293 29.8477 138.906 30.1172 138.391 30.3672C137.875 30.6172 137.207 30.8281 136.387 31C135.574 31.1719 134.563 31.2578 133.352 31.2578C132.344 31.2578 131.477 31.1953 130.75 31.0703C130.031 30.9531 129.418 30.7773 128.91 30.543C128.41 30.3008 128.008 30.0039 127.703 29.6523C127.399 29.3008 127.164 28.8945 127 28.4336C126.836 27.9648 126.727 27.4453 126.672 26.875C126.617 26.3047 126.59 25.6797 126.59 25L126.602 17.5H128.852Z" fill="#12042D"/>
<defs>
<clipPath id="clip0_26_1142">
<rect width="40" height="40" rx="20" fill="white"/>
</clipPath>
</defs>
</svg>
