<svg width="135" height="40" viewBox="0 0 135 40" fill="none" xmlns="http://www.w3.org/2000/svg">
<rect width="40" height="40" rx="20" fill="#5816E0"/>
<path d="M11.7951 9.96362L9.50104 14.1695C9.19017 14.7394 9.20096 15.4306 9.52946 15.9905L10.5298 17.6956C11.2254 18.8813 12.9257 18.9203 13.6749 17.7677L15.0946 15.5835C15.4357 15.0587 16.0191 14.7421 16.645 14.7421H26.8434C27.5279 14.7421 28.1565 14.364 28.4771 13.7591L29.5607 11.7151C30.2135 10.4836 29.3208 9 27.927 9H13.4184C12.7418 9 12.1192 9.3696 11.7951 9.96362Z" fill="#5816E0"/>
<path d="M16.7706 18.3774L12.8372 25.3154C12.5168 25.8806 12.5165 26.5724 12.8364 27.1379L13.7767 28.7996C14.4644 30.0151 16.1996 30.0587 16.9475 28.8794L20.1472 23.8336C20.4863 23.2989 21.0755 22.9748 21.7087 22.9748H25.2472C25.9343 22.9748 26.5649 22.5937 26.8843 21.9853L27.8485 20.1488C28.4949 18.9176 27.6019 17.4403 26.2113 17.4403H18.3791C17.7133 17.4403 17.099 17.7982 16.7706 18.3774Z" fill="#5816E0"/>
<path d="M11.7951 9.96362L9.50104 14.1695C9.19017 14.7394 9.20096 15.4306 9.52946 15.9905L10.5298 17.6956C11.2254 18.8813 12.9257 18.9203 13.6749 17.7677L15.0946 15.5835C15.4357 15.0587 16.0191 14.7421 16.645 14.7421H26.8434C27.5279 14.7421 28.1565 14.364 28.4771 13.7591L29.5607 11.7151C30.2135 10.4836 29.3208 9 27.927 9H13.4184C12.7418 9 12.1192 9.3696 11.7951 9.96362Z" stroke="#E9E6EF" stroke-width="1.1"/>
<path d="M16.7706 18.3774L12.8372 25.3154C12.5168 25.8806 12.5165 26.5724 12.8364 27.1379L13.7767 28.7996C14.4644 30.0151 16.1996 30.0587 16.9475 28.8794L20.1472 23.8336C20.4863 23.2989 21.0755 22.9748 21.7087 22.9748H25.2472C25.9343 22.9748 26.5649 22.5937 26.8843 21.9853L27.8485 20.1488C28.4949 18.9176 27.6019 17.4403 26.2113 17.4403H18.3791C17.7133 17.4403 17.099 17.7982 16.7706 18.3774Z" stroke="#E9E6EF" stroke-width="1.1"/>
<path d="M52.808 13.1L53.732 11.936V20.024L53.072 19.376H60.236V21.176H53.072L53.732 20.492V29H51.692V11.3H61.304V13.1H52.808ZM75.9213 29V16.256H77.9373V29H75.9213ZM76.9413 13.328C76.5653 13.328 76.2373 13.224 75.9573 13.016C75.6853 12.8 75.5493 12.508 75.5493 12.14C75.5493 11.78 75.6853 11.496 75.9573 11.288C76.2373 11.072 76.5653 10.964 76.9413 10.964C77.3173 10.964 77.6413 11.072 77.9133 11.288C78.1853 11.496 78.3213 11.78 78.3213 12.14C78.3213 12.508 78.1853 12.8 77.9133 13.016C77.6413 13.224 77.3173 13.328 76.9413 13.328ZM98.507 29.24C97.459 29.24 96.499 28.988 95.627 28.484C94.755 27.972 94.059 27.224 93.539 26.24C93.019 25.248 92.759 24.04 92.759 22.616C92.759 21.216 93.023 20.028 93.551 19.052C94.079 18.076 94.779 17.336 95.651 16.832C96.523 16.32 97.475 16.064 98.507 16.064C99.491 16.064 100.411 16.3 101.267 16.772C102.131 17.236 102.827 17.884 103.355 18.716C103.883 19.548 104.147 20.512 104.147 21.608C104.147 21.632 104.147 21.656 104.147 21.68C104.147 21.704 104.147 21.728 104.147 21.752L102.683 21.812C102.683 21.788 102.683 21.764 102.683 21.74C102.683 21.708 102.683 21.68 102.683 21.656C102.683 20.96 102.499 20.332 102.131 19.772C101.771 19.212 101.295 18.768 100.703 18.44C100.111 18.104 99.475 17.936 98.795 17.936C97.659 17.936 96.719 18.32 95.975 19.088C95.231 19.848 94.859 21.024 94.859 22.616C94.859 24.2 95.231 25.38 95.975 26.156C96.727 26.924 97.667 27.308 98.795 27.308C99.507 27.308 100.155 27.136 100.739 26.792C101.331 26.448 101.803 25.988 102.155 25.412C102.507 24.828 102.683 24.176 102.683 23.456L104.147 23.492C104.147 24.58 103.895 25.56 103.391 26.432C102.887 27.296 102.207 27.98 101.351 28.484C100.503 28.988 99.555 29.24 98.507 29.24ZM102.683 29V10.244H104.735V29H102.683ZM124.545 29.228C123.633 29.228 122.873 29.072 122.265 28.76C121.657 28.44 121.173 28.028 120.813 27.524C120.461 27.02 120.209 26.476 120.057 25.892C119.913 25.3 119.841 24.732 119.841 24.188C119.841 23.884 119.841 23.572 119.841 23.252C119.841 22.924 119.841 22.596 119.841 22.268V16.256H121.893V22.004C121.893 22.3 121.893 22.592 121.893 22.88C121.893 23.168 121.893 23.44 121.893 23.696C121.893 24.344 121.981 24.944 122.157 25.496C122.341 26.048 122.657 26.496 123.105 26.84C123.553 27.176 124.169 27.344 124.953 27.344C125.689 27.344 126.333 27.124 126.885 26.684C127.437 26.236 127.869 25.68 128.181 25.016C128.493 24.344 128.649 23.676 128.649 23.012L129.837 23.504C129.837 24.208 129.713 24.9 129.465 25.58C129.217 26.252 128.861 26.864 128.397 27.416C127.941 27.968 127.385 28.408 126.729 28.736C126.081 29.064 125.353 29.228 124.545 29.228ZM128.649 29V16.256H130.689V29H128.649Z" fill="#12042D"/>
</svg>
