<svg width="102" height="102" viewBox="0 0 102 102" fill="none" xmlns="http://www.w3.org/2000/svg">
<rect width="102" height="102" rx="51" fill="#6126F0"/>
<path d="M24.333 35.56C24.333 30.2694 24.333 27.6214 26.0903 25.9787C27.8477 24.3334 30.677 24.3334 36.333 24.3334C41.989 24.3334 44.8183 24.3334 46.5757 25.9787C48.333 27.6214 48.333 30.2694 48.333 35.56V66.44C48.333 71.7307 48.333 74.3787 46.5757 76.0214C44.8183 77.6667 41.989 77.6667 36.333 77.6667C30.677 77.6667 27.8477 77.6667 26.0903 76.0214C24.333 74.3787 24.333 71.7307 24.333 66.44V35.56ZM53.6663 60.0667C53.6663 54.536 53.6663 51.7707 55.4237 50.0507C57.181 48.3334 60.0103 48.3334 65.6663 48.3334C71.3223 48.3334 74.1517 48.3334 75.909 50.0507C77.6663 51.7734 77.6663 54.536 77.6663 60.0667V65.9334C77.6663 71.464 77.6663 74.2294 75.909 75.9494C74.1517 77.6667 71.3223 77.6667 65.6663 77.6667C60.0103 77.6667 57.181 77.6667 55.4237 75.9494C53.6663 74.2267 53.6663 71.464 53.6663 65.9334V60.0667ZM53.6663 33.6667C53.6663 30.768 53.6663 29.32 54.1223 28.1734C54.7163 26.6655 55.8845 25.4551 57.3703 24.808C58.4717 24.3334 59.8717 24.3334 62.6663 24.3334H68.6663C71.461 24.3334 72.861 24.3334 73.9623 24.808C75.4317 25.4374 76.6023 26.648 77.2103 28.1734C77.6663 29.32 77.6663 30.768 77.6663 33.6667C77.6663 36.5654 77.6663 38.0134 77.2103 39.16C76.6164 40.6679 75.4482 41.8783 73.9623 42.5254C72.861 43 71.461 43 68.6663 43H62.6663C59.8717 43 58.4717 43 57.3703 42.5254C55.8845 41.8783 54.7163 40.6679 54.1223 39.16C53.6663 38.0134 53.6663 36.5654 53.6663 33.6667Z" fill="white"/>
</svg>
