<svg width="102" height="102" viewBox="0 0 102 102" fill="none" xmlns="http://www.w3.org/2000/svg">
<rect width="102" height="102" rx="51" fill="#6126F0"/>
<path d="M79.8838 32.92C79.8555 32.4732 79.6782 32.0489 79.3802 31.7148C79.0822 31.3808 78.6807 31.1564 78.2401 31.0775C67.4276 29.1375 62.9138 27.735 52.8238 23.1775C52.5649 23.0605 52.2841 23 52.0001 23C51.716 23 51.4352 23.0605 51.1763 23.1775C41.0863 27.735 36.5726 29.1375 25.7601 31.0775C25.3194 31.1564 24.9179 31.3808 24.6199 31.7148C24.3219 32.0489 24.1446 32.4732 24.1163 32.92C23.6351 40.5588 24.6613 47.6763 27.1701 54.075C29.2245 59.2944 32.2648 64.0693 36.1251 68.1388C42.8088 75.23 49.9051 78.31 51.2588 78.855C51.7399 79.0496 52.2777 79.0496 52.7588 78.855C54.1126 78.31 61.2088 75.23 67.8926 68.1388C71.7465 64.0677 74.7809 59.293 76.8301 54.075C79.3388 47.6763 80.3651 40.5588 79.8838 32.92ZM63.5088 42.3088L49.6588 58.3088C49.4807 58.5151 49.2623 58.6828 49.0171 58.8017C48.7718 58.9206 48.5048 58.9881 48.2326 59H48.1501C47.6266 59.0001 47.124 58.7951 46.7501 58.4288L40.6001 52.4038C40.4124 52.2199 40.2628 52.0009 40.1599 51.7593C40.0569 51.5176 40.0025 51.258 39.9998 50.9953C39.9944 50.4649 40.2 49.9539 40.5713 49.575C40.9426 49.1961 41.4492 48.9802 41.9797 48.9748C42.5102 48.9694 43.0211 49.175 43.4001 49.5463L48.0251 54.0825L60.4876 39.6913C60.6594 39.4926 60.8687 39.3298 61.1035 39.2121C61.3383 39.0943 61.594 39.024 61.856 39.0051C62.118 38.9862 62.3811 39.019 62.6304 39.1018C62.8796 39.1846 63.1102 39.3157 63.3088 39.4875C63.5074 39.6594 63.6703 39.8687 63.788 40.1035C63.9057 40.3383 63.9761 40.594 63.995 40.8559C64.0139 41.1179 63.981 41.3811 63.8983 41.6303C63.8155 41.8796 63.6844 42.1101 63.5126 42.3088H63.5088Z" fill="white"/>
</svg>
